<mxfile host="Electron" modified="2023-08-24T11:25:46.434Z" agent="Mozilla/5.0 (Windows NT 10.0; Win64; x64) AppleWebKit/537.36 (KHTML, like Gecko) draw.io/21.2.1 Chrome/112.0.5615.87 Electron/24.1.2 Safari/537.36" etag="xwfQdKAfGofuWDBeo_lJ" version="21.2.1" type="device">
  <diagram name="Page-1" id="edf60f1a-56cd-e834-aa8a-f176f3a09ee4">
    <mxGraphModel dx="1050" dy="628" grid="1" gridSize="10" guides="1" tooltips="1" connect="1" arrows="1" fold="1" page="1" pageScale="1" pageWidth="850" pageHeight="1100" background="none" math="0" shadow="0">
      <root>
        <mxCell id="0" />
        <mxCell id="1" parent="0" />
        <mxCell id="e_K_E974sBM6reIO5fZL-2" value="ZED SDK" style="edgeStyle=orthogonalEdgeStyle;rounded=0;orthogonalLoop=1;jettySize=auto;html=1;fontSize=10;fontStyle=1" parent="1" source="60e70716793133e9-4" target="e_K_E974sBM6reIO5fZL-1" edge="1">
          <mxGeometry relative="1" as="geometry" />
        </mxCell>
        <mxCell id="e_K_E974sBM6reIO5fZL-7" value="ZED SDK" style="edgeStyle=orthogonalEdgeStyle;rounded=0;orthogonalLoop=1;jettySize=auto;html=1;exitX=0.5;exitY=1;exitDx=0;exitDy=0;entryX=0.5;entryY=0;entryDx=0;entryDy=0;fontSize=10;fontStyle=1" parent="1" source="60e70716793133e9-4" target="vUtEQ1WDIaLr55wLkuLu-16" edge="1">
          <mxGeometry relative="1" as="geometry" />
        </mxCell>
        <mxCell id="60e70716793133e9-4" value="ZED CAMERA SVO RECORDING" style="rounded=0;whiteSpace=wrap;html=1;shadow=0;labelBackgroundColor=none;strokeWidth=1;fontFamily=Verdana;fontSize=10;align=center;fontStyle=1" parent="1" vertex="1">
          <mxGeometry x="365" y="40" width="120" height="60" as="geometry" />
        </mxCell>
        <mxCell id="Irl7B9xwEchcPY5wgv8W-5" style="edgeStyle=orthogonalEdgeStyle;rounded=0;orthogonalLoop=1;jettySize=auto;html=1;entryX=0.5;entryY=0;entryDx=0;entryDy=0;" edge="1" parent="1" source="vUtEQ1WDIaLr55wLkuLu-16" target="Irl7B9xwEchcPY5wgv8W-2">
          <mxGeometry relative="1" as="geometry">
            <mxPoint x="290" y="450" as="targetPoint" />
          </mxGeometry>
        </mxCell>
        <mxCell id="vUtEQ1WDIaLr55wLkuLu-16" value="POINT CLOUD OF PLANTS" style="whiteSpace=wrap;html=1;fontSize=10;fontFamily=Verdana;rounded=0;shadow=0;labelBackgroundColor=none;strokeWidth=1;fontStyle=1" parent="1" vertex="1">
          <mxGeometry x="365" y="420" width="120" height="60" as="geometry" />
        </mxCell>
        <mxCell id="vUtEQ1WDIaLr55wLkuLu-25" value="" style="edgeStyle=orthogonalEdgeStyle;rounded=0;orthogonalLoop=1;jettySize=auto;html=1;fontSize=10;fontStyle=1" parent="1" source="vUtEQ1WDIaLr55wLkuLu-22" target="vUtEQ1WDIaLr55wLkuLu-24" edge="1">
          <mxGeometry relative="1" as="geometry" />
        </mxCell>
        <mxCell id="vUtEQ1WDIaLr55wLkuLu-22" value="LEAF MASK" style="whiteSpace=wrap;html=1;fontSize=10;fontFamily=Verdana;rounded=0;shadow=0;labelBackgroundColor=none;strokeWidth=1;fontStyle=1" parent="1" vertex="1">
          <mxGeometry x="100" y="280" width="120" height="60" as="geometry" />
        </mxCell>
        <mxCell id="Irl7B9xwEchcPY5wgv8W-3" style="edgeStyle=orthogonalEdgeStyle;rounded=0;orthogonalLoop=1;jettySize=auto;html=1;entryX=0.5;entryY=0;entryDx=0;entryDy=0;" edge="1" parent="1" source="vUtEQ1WDIaLr55wLkuLu-24" target="Irl7B9xwEchcPY5wgv8W-2">
          <mxGeometry relative="1" as="geometry" />
        </mxCell>
        <mxCell id="vUtEQ1WDIaLr55wLkuLu-24" value="SCALED LEAF MASK" style="whiteSpace=wrap;html=1;fontSize=10;fontFamily=Verdana;rounded=0;shadow=0;labelBackgroundColor=none;strokeWidth=1;fontStyle=1" parent="1" vertex="1">
          <mxGeometry x="100" y="420" width="120" height="60" as="geometry" />
        </mxCell>
        <mxCell id="e_K_E974sBM6reIO5fZL-3" value="MASK R-CNN TRAINED MODEL" style="edgeStyle=orthogonalEdgeStyle;rounded=0;orthogonalLoop=1;jettySize=auto;html=1;exitX=0.5;exitY=1;exitDx=0;exitDy=0;entryX=0.5;entryY=0;entryDx=0;entryDy=0;fontSize=10;fontStyle=1" parent="1" source="e_K_E974sBM6reIO5fZL-1" target="vUtEQ1WDIaLr55wLkuLu-22" edge="1">
          <mxGeometry relative="1" as="geometry" />
        </mxCell>
        <mxCell id="e_K_E974sBM6reIO5fZL-1" value="2D IMAGE" style="whiteSpace=wrap;html=1;fontSize=10;fontFamily=Verdana;rounded=0;shadow=0;labelBackgroundColor=none;strokeWidth=1;fontStyle=1" parent="1" vertex="1">
          <mxGeometry x="100" y="120" width="120" height="60" as="geometry" />
        </mxCell>
        <mxCell id="Irl7B9xwEchcPY5wgv8W-2" value="POINT CLOUD OF LEAF" style="whiteSpace=wrap;html=1;fontSize=10;fontFamily=Verdana;rounded=0;shadow=0;labelBackgroundColor=none;strokeWidth=7;fontStyle=1" vertex="1" parent="1">
          <mxGeometry x="230" y="570" width="120" height="70" as="geometry" />
        </mxCell>
      </root>
    </mxGraphModel>
  </diagram>
</mxfile>
